solid ascii
  facet normal -0.000000e+000 1.000000e+000 0.000000e+000
    outer loop
      vertex   -3.810000e-001 -3.081000e+000 1.000000e-001
      vertex   3.810000e-001 -3.081000e+000 1.000000e-001
      vertex   -3.810000e-001 -3.081000e+000 0.000000e+000
    endloop
  endfacet
  facet normal -0.000000e+000 1.000000e+000 0.000000e+000
    outer loop
      vertex   -3.810000e-001 -3.081000e+000 0.000000e+000
      vertex   3.810000e-001 -3.081000e+000 1.000000e-001
      vertex   3.810000e-001 -3.081000e+000 0.000000e+000
    endloop
  endfacet
  facet normal -1.000000e+000 0.000000e+000 -0.000000e+000
    outer loop
      vertex   3.810000e-001 -3.081000e+000 1.000000e-001
      vertex   3.810000e-001 7.730969e-001 1.000000e-001
      vertex   3.810000e-001 -3.081000e+000 0.000000e+000
    endloop
  endfacet
  facet normal -1.000000e+000 0.000000e+000 0.000000e+000
    outer loop
      vertex   3.810000e-001 -3.081000e+000 0.000000e+000
      vertex   3.810000e-001 7.730969e-001 1.000000e-001
      vertex   3.810000e-001 7.730969e-001 0.000000e+000
    endloop
  endfacet
  facet normal -7.071068e-001 7.071068e-001 0.000000e+000
    outer loop
      vertex   3.810000e-001 7.730969e-001 1.000000e-001
      vertex   4.410000e-001 8.330969e-001 1.000000e-001
      vertex   3.810000e-001 7.730969e-001 0.000000e+000
    endloop
  endfacet
  facet normal -7.071068e-001 7.071068e-001 0.000000e+000
    outer loop
      vertex   3.810000e-001 7.730969e-001 0.000000e+000
      vertex   4.410000e-001 8.330969e-001 1.000000e-001
      vertex   4.410000e-001 8.330969e-001 0.000000e+000
    endloop
  endfacet
  facet normal -0.000000e+000 1.000000e+000 0.000000e+000
    outer loop
      vertex   4.410000e-001 8.330969e-001 1.000000e-001
      vertex   4.590000e-001 8.330969e-001 1.000000e-001
      vertex   4.410000e-001 8.330969e-001 0.000000e+000
    endloop
  endfacet
  facet normal -0.000000e+000 1.000000e+000 0.000000e+000
    outer loop
      vertex   4.410000e-001 8.330969e-001 0.000000e+000
      vertex   4.590000e-001 8.330969e-001 1.000000e-001
      vertex   4.590000e-001 8.330969e-001 0.000000e+000
    endloop
  endfacet
  facet normal 7.071068e-001 7.071068e-001 0.000000e+000
    outer loop
      vertex   4.590000e-001 8.330969e-001 1.000000e-001
      vertex   5.190000e-001 7.730969e-001 1.000000e-001
      vertex   4.590000e-001 8.330969e-001 0.000000e+000
    endloop
  endfacet
  facet normal 7.071068e-001 7.071068e-001 0.000000e+000
    outer loop
      vertex   4.590000e-001 8.330969e-001 0.000000e+000
      vertex   5.190000e-001 7.730969e-001 1.000000e-001
      vertex   5.190000e-001 7.730969e-001 0.000000e+000
    endloop
  endfacet
  facet normal 1.000000e+000 0.000000e+000 0.000000e+000
    outer loop
      vertex   5.190000e-001 7.730969e-001 1.000000e-001
      vertex   5.190000e-001 -3.081000e+000 1.000000e-001
      vertex   5.190000e-001 7.730969e-001 0.000000e+000
    endloop
  endfacet
  facet normal 1.000000e+000 0.000000e+000 0.000000e+000
    outer loop
      vertex   5.190000e-001 7.730969e-001 0.000000e+000
      vertex   5.190000e-001 -3.081000e+000 1.000000e-001
      vertex   5.190000e-001 -3.081000e+000 0.000000e+000
    endloop
  endfacet
  facet normal -0.000000e+000 1.000000e+000 0.000000e+000
    outer loop
      vertex   5.190000e-001 -3.081000e+000 1.000000e-001
      vertex   1.281000e+000 -3.081000e+000 1.000000e-001
      vertex   5.190000e-001 -3.081000e+000 0.000000e+000
    endloop
  endfacet
  facet normal -0.000000e+000 1.000000e+000 0.000000e+000
    outer loop
      vertex   5.190000e-001 -3.081000e+000 0.000000e+000
      vertex   1.281000e+000 -3.081000e+000 1.000000e-001
      vertex   1.281000e+000 -3.081000e+000 0.000000e+000
    endloop
  endfacet
  facet normal -1.000000e+000 0.000000e+000 -0.000000e+000
    outer loop
      vertex   1.281000e+000 -3.081000e+000 1.000000e-001
      vertex   1.281000e+000 7.730969e-001 1.000000e-001
      vertex   1.281000e+000 -3.081000e+000 0.000000e+000
    endloop
  endfacet
  facet normal -1.000000e+000 0.000000e+000 0.000000e+000
    outer loop
      vertex   1.281000e+000 -3.081000e+000 0.000000e+000
      vertex   1.281000e+000 7.730969e-001 1.000000e-001
      vertex   1.281000e+000 7.730969e-001 0.000000e+000
    endloop
  endfacet
  facet normal -7.071068e-001 7.071068e-001 0.000000e+000
    outer loop
      vertex   1.281000e+000 7.730969e-001 1.000000e-001
      vertex   1.341000e+000 8.330969e-001 1.000000e-001
      vertex   1.281000e+000 7.730969e-001 0.000000e+000
    endloop
  endfacet
  facet normal -7.071068e-001 7.071068e-001 0.000000e+000
    outer loop
      vertex   1.281000e+000 7.730969e-001 0.000000e+000
      vertex   1.341000e+000 8.330969e-001 1.000000e-001
      vertex   1.341000e+000 8.330969e-001 0.000000e+000
    endloop
  endfacet
  facet normal 9.713237e-015 1.000000e+000 0.000000e+000
    outer loop
      vertex   1.341000e+000 8.330969e-001 1.000000e-001
      vertex   1.359000e+000 8.330969e-001 1.000000e-001
      vertex   1.341000e+000 8.330969e-001 0.000000e+000
    endloop
  endfacet
  facet normal 9.713237e-015 1.000000e+000 0.000000e+000
    outer loop
      vertex   1.341000e+000 8.330969e-001 0.000000e+000
      vertex   1.359000e+000 8.330969e-001 1.000000e-001
      vertex   1.359000e+000 8.330969e-001 0.000000e+000
    endloop
  endfacet
  facet normal 7.071068e-001 7.071068e-001 0.000000e+000
    outer loop
      vertex   1.359000e+000 8.330969e-001 1.000000e-001
      vertex   1.419000e+000 7.730969e-001 1.000000e-001
      vertex   1.359000e+000 8.330969e-001 0.000000e+000
    endloop
  endfacet
  facet normal 7.071068e-001 7.071068e-001 0.000000e+000
    outer loop
      vertex   1.359000e+000 8.330969e-001 0.000000e+000
      vertex   1.419000e+000 7.730969e-001 1.000000e-001
      vertex   1.419000e+000 7.730969e-001 0.000000e+000
    endloop
  endfacet
  facet normal 1.000000e+000 0.000000e+000 0.000000e+000
    outer loop
      vertex   1.419000e+000 7.730969e-001 1.000000e-001
      vertex   1.419000e+000 -3.081000e+000 1.000000e-001
      vertex   1.419000e+000 7.730969e-001 0.000000e+000
    endloop
  endfacet
  facet normal 1.000000e+000 0.000000e+000 0.000000e+000
    outer loop
      vertex   1.419000e+000 7.730969e-001 0.000000e+000
      vertex   1.419000e+000 -3.081000e+000 1.000000e-001
      vertex   1.419000e+000 -3.081000e+000 0.000000e+000
    endloop
  endfacet
  facet normal -0.000000e+000 1.000000e+000 0.000000e+000
    outer loop
      vertex   1.419000e+000 -3.081000e+000 1.000000e-001
      vertex   2.181000e+000 -3.081000e+000 1.000000e-001
      vertex   1.419000e+000 -3.081000e+000 0.000000e+000
    endloop
  endfacet
  facet normal -0.000000e+000 1.000000e+000 0.000000e+000
    outer loop
      vertex   1.419000e+000 -3.081000e+000 0.000000e+000
      vertex   2.181000e+000 -3.081000e+000 1.000000e-001
      vertex   2.181000e+000 -3.081000e+000 0.000000e+000
    endloop
  endfacet
  facet normal -1.000000e+000 0.000000e+000 -0.000000e+000
    outer loop
      vertex   2.181000e+000 -3.081000e+000 1.000000e-001
      vertex   2.181000e+000 7.730969e-001 1.000000e-001
      vertex   2.181000e+000 -3.081000e+000 0.000000e+000
    endloop
  endfacet
  facet normal -1.000000e+000 0.000000e+000 0.000000e+000
    outer loop
      vertex   2.181000e+000 -3.081000e+000 0.000000e+000
      vertex   2.181000e+000 7.730969e-001 1.000000e-001
      vertex   2.181000e+000 7.730969e-001 0.000000e+000
    endloop
  endfacet
  facet normal -7.071068e-001 7.071068e-001 0.000000e+000
    outer loop
      vertex   2.181000e+000 7.730969e-001 1.000000e-001
      vertex   2.241000e+000 8.330969e-001 1.000000e-001
      vertex   2.181000e+000 7.730969e-001 0.000000e+000
    endloop
  endfacet
  facet normal -7.071068e-001 7.071068e-001 0.000000e+000
    outer loop
      vertex   2.181000e+000 7.730969e-001 0.000000e+000
      vertex   2.241000e+000 8.330969e-001 1.000000e-001
      vertex   2.241000e+000 8.330969e-001 0.000000e+000
    endloop
  endfacet
  facet normal 1.165588e-013 1.000000e+000 0.000000e+000
    outer loop
      vertex   2.241000e+000 8.330969e-001 1.000000e-001
      vertex   2.259000e+000 8.330969e-001 1.000000e-001
      vertex   2.241000e+000 8.330969e-001 0.000000e+000
    endloop
  endfacet
  facet normal 1.165588e-013 1.000000e+000 0.000000e+000
    outer loop
      vertex   2.241000e+000 8.330969e-001 0.000000e+000
      vertex   2.259000e+000 8.330969e-001 1.000000e-001
      vertex   2.259000e+000 8.330969e-001 0.000000e+000
    endloop
  endfacet
  facet normal 7.071068e-001 7.071068e-001 0.000000e+000
    outer loop
      vertex   2.259000e+000 8.330969e-001 1.000000e-001
      vertex   2.319000e+000 7.730969e-001 1.000000e-001
      vertex   2.259000e+000 8.330969e-001 0.000000e+000
    endloop
  endfacet
  facet normal 7.071068e-001 7.071068e-001 0.000000e+000
    outer loop
      vertex   2.259000e+000 8.330969e-001 0.000000e+000
      vertex   2.319000e+000 7.730969e-001 1.000000e-001
      vertex   2.319000e+000 7.730969e-001 0.000000e+000
    endloop
  endfacet
  facet normal 1.000000e+000 0.000000e+000 0.000000e+000
    outer loop
      vertex   2.319000e+000 7.730969e-001 1.000000e-001
      vertex   2.319000e+000 -3.081000e+000 1.000000e-001
      vertex   2.319000e+000 7.730969e-001 0.000000e+000
    endloop
  endfacet
  facet normal 1.000000e+000 0.000000e+000 0.000000e+000
    outer loop
      vertex   2.319000e+000 7.730969e-001 0.000000e+000
      vertex   2.319000e+000 -3.081000e+000 1.000000e-001
      vertex   2.319000e+000 -3.081000e+000 0.000000e+000
    endloop
  endfacet
  facet normal -0.000000e+000 1.000000e+000 0.000000e+000
    outer loop
      vertex   2.319000e+000 -3.081000e+000 1.000000e-001
      vertex   3.081000e+000 -3.081000e+000 1.000000e-001
      vertex   2.319000e+000 -3.081000e+000 0.000000e+000
    endloop
  endfacet
  facet normal -0.000000e+000 1.000000e+000 0.000000e+000
    outer loop
      vertex   2.319000e+000 -3.081000e+000 0.000000e+000
      vertex   3.081000e+000 -3.081000e+000 1.000000e-001
      vertex   3.081000e+000 -3.081000e+000 0.000000e+000
    endloop
  endfacet
  facet normal -1.000000e+000 0.000000e+000 -0.000000e+000
    outer loop
      vertex   3.081000e+000 -3.081000e+000 1.000000e-001
      vertex   3.081000e+000 7.730969e-001 1.000000e-001
      vertex   3.081000e+000 -3.081000e+000 0.000000e+000
    endloop
  endfacet
  facet normal -1.000000e+000 0.000000e+000 0.000000e+000
    outer loop
      vertex   3.081000e+000 -3.081000e+000 0.000000e+000
      vertex   3.081000e+000 7.730969e-001 1.000000e-001
      vertex   3.081000e+000 7.730969e-001 0.000000e+000
    endloop
  endfacet
  facet normal -7.071068e-001 7.071068e-001 0.000000e+000
    outer loop
      vertex   3.081000e+000 7.730969e-001 1.000000e-001
      vertex   3.141000e+000 8.330969e-001 1.000000e-001
      vertex   3.081000e+000 7.730969e-001 0.000000e+000
    endloop
  endfacet
  facet normal -7.071068e-001 7.071068e-001 0.000000e+000
    outer loop
      vertex   3.081000e+000 7.730969e-001 0.000000e+000
      vertex   3.141000e+000 8.330969e-001 1.000000e-001
      vertex   3.141000e+000 8.330969e-001 0.000000e+000
    endloop
  endfacet
  facet normal -0.000000e+000 1.000000e+000 0.000000e+000
    outer loop
      vertex   3.141000e+000 8.330969e-001 1.000000e-001
      vertex   3.159000e+000 8.330969e-001 1.000000e-001
      vertex   3.141000e+000 8.330969e-001 0.000000e+000
    endloop
  endfacet
  facet normal -0.000000e+000 1.000000e+000 0.000000e+000
    outer loop
      vertex   3.141000e+000 8.330969e-001 0.000000e+000
      vertex   3.159000e+000 8.330969e-001 1.000000e-001
      vertex   3.159000e+000 8.330969e-001 0.000000e+000
    endloop
  endfacet
  facet normal 7.071068e-001 7.071068e-001 0.000000e+000
    outer loop
      vertex   3.159000e+000 8.330969e-001 1.000000e-001
      vertex   3.219000e+000 7.730969e-001 1.000000e-001
      vertex   3.159000e+000 8.330969e-001 0.000000e+000
    endloop
  endfacet
  facet normal 7.071068e-001 7.071068e-001 0.000000e+000
    outer loop
      vertex   3.159000e+000 8.330969e-001 0.000000e+000
      vertex   3.219000e+000 7.730969e-001 1.000000e-001
      vertex   3.219000e+000 7.730969e-001 0.000000e+000
    endloop
  endfacet
  facet normal 1.000000e+000 0.000000e+000 0.000000e+000
    outer loop
      vertex   3.219000e+000 7.730969e-001 1.000000e-001
      vertex   3.219000e+000 -3.081000e+000 1.000000e-001
      vertex   3.219000e+000 7.730969e-001 0.000000e+000
    endloop
  endfacet
  facet normal 1.000000e+000 0.000000e+000 0.000000e+000
    outer loop
      vertex   3.219000e+000 7.730969e-001 0.000000e+000
      vertex   3.219000e+000 -3.081000e+000 1.000000e-001
      vertex   3.219000e+000 -3.081000e+000 0.000000e+000
    endloop
  endfacet
  facet normal -0.000000e+000 1.000000e+000 0.000000e+000
    outer loop
      vertex   3.219000e+000 -3.081000e+000 1.000000e-001
      vertex   3.981000e+000 -3.081000e+000 1.000000e-001
      vertex   3.219000e+000 -3.081000e+000 0.000000e+000
    endloop
  endfacet
  facet normal -0.000000e+000 1.000000e+000 0.000000e+000
    outer loop
      vertex   3.219000e+000 -3.081000e+000 0.000000e+000
      vertex   3.981000e+000 -3.081000e+000 1.000000e-001
      vertex   3.981000e+000 -3.081000e+000 0.000000e+000
    endloop
  endfacet
  facet normal -1.000000e+000 0.000000e+000 -0.000000e+000
    outer loop
      vertex   3.981000e+000 -3.081000e+000 1.000000e-001
      vertex   3.981000e+000 7.730969e-001 1.000000e-001
      vertex   3.981000e+000 -3.081000e+000 0.000000e+000
    endloop
  endfacet
  facet normal -1.000000e+000 0.000000e+000 0.000000e+000
    outer loop
      vertex   3.981000e+000 -3.081000e+000 0.000000e+000
      vertex   3.981000e+000 7.730969e-001 1.000000e-001
      vertex   3.981000e+000 7.730969e-001 0.000000e+000
    endloop
  endfacet
  facet normal -7.071068e-001 7.071068e-001 0.000000e+000
    outer loop
      vertex   3.981000e+000 7.730969e-001 1.000000e-001
      vertex   4.041000e+000 8.330969e-001 1.000000e-001
      vertex   3.981000e+000 7.730969e-001 0.000000e+000
    endloop
  endfacet
  facet normal -7.071068e-001 7.071068e-001 0.000000e+000
    outer loop
      vertex   3.981000e+000 7.730969e-001 0.000000e+000
      vertex   4.041000e+000 8.330969e-001 1.000000e-001
      vertex   4.041000e+000 8.330969e-001 0.000000e+000
    endloop
  endfacet
  facet normal -3.798211e-014 1.000000e+000 0.000000e+000
    outer loop
      vertex   4.041000e+000 8.330969e-001 1.000000e-001
      vertex   4.331000e+000 8.330969e-001 1.000000e-001
      vertex   4.041000e+000 8.330969e-001 0.000000e+000
    endloop
  endfacet
  facet normal -3.798211e-014 1.000000e+000 0.000000e+000
    outer loop
      vertex   4.041000e+000 8.330969e-001 0.000000e+000
      vertex   4.331000e+000 8.330969e-001 1.000000e-001
      vertex   4.331000e+000 8.330969e-001 0.000000e+000
    endloop
  endfacet
  facet normal 1.000000e+000 0.000000e+000 0.000000e+000
    outer loop
      vertex   4.331000e+000 8.330969e-001 1.000000e-001
      vertex   4.331000e+000 -3.808744e+000 1.000000e-001
      vertex   4.331000e+000 8.330969e-001 0.000000e+000
    endloop
  endfacet
  facet normal 1.000000e+000 0.000000e+000 0.000000e+000
    outer loop
      vertex   4.331000e+000 8.330969e-001 0.000000e+000
      vertex   4.331000e+000 -3.808744e+000 1.000000e-001
      vertex   4.331000e+000 -3.808744e+000 0.000000e+000
    endloop
  endfacet
  facet normal 1.381575e-016 -1.000000e+000 0.000000e+000
    outer loop
      vertex   4.331000e+000 -3.808744e+000 1.000000e-001
      vertex   -7.310000e-001 -3.808744e+000 1.000000e-001
      vertex   4.331000e+000 -3.808744e+000 0.000000e+000
    endloop
  endfacet
  facet normal 1.381575e-016 -1.000000e+000 0.000000e+000
    outer loop
      vertex   4.331000e+000 -3.808744e+000 0.000000e+000
      vertex   -7.310000e-001 -3.808744e+000 1.000000e-001
      vertex   -7.310000e-001 -3.808744e+000 0.000000e+000
    endloop
  endfacet
  facet normal -1.000000e+000 -2.071615e-016 0.000000e+000
    outer loop
      vertex   -7.310000e-001 -3.808744e+000 1.000000e-001
      vertex   -7.310000e-001 8.330969e-001 1.000000e-001
      vertex   -7.310000e-001 -3.808744e+000 0.000000e+000
    endloop
  endfacet
  facet normal -1.000000e+000 -2.071615e-016 -0.000000e+000
    outer loop
      vertex   -7.310000e-001 -3.808744e+000 0.000000e+000
      vertex   -7.310000e-001 8.330969e-001 1.000000e-001
      vertex   -7.310000e-001 8.330969e-001 0.000000e+000
    endloop
  endfacet
  facet normal 6.028906e-016 1.000000e+000 0.000000e+000
    outer loop
      vertex   -7.310000e-001 8.330969e-001 1.000000e-001
      vertex   -4.410000e-001 8.330969e-001 1.000000e-001
      vertex   -7.310000e-001 8.330969e-001 0.000000e+000
    endloop
  endfacet
  facet normal 6.028906e-016 1.000000e+000 0.000000e+000
    outer loop
      vertex   -7.310000e-001 8.330969e-001 0.000000e+000
      vertex   -4.410000e-001 8.330969e-001 1.000000e-001
      vertex   -4.410000e-001 8.330969e-001 0.000000e+000
    endloop
  endfacet
  facet normal 7.071068e-001 7.071068e-001 0.000000e+000
    outer loop
      vertex   -4.410000e-001 8.330969e-001 1.000000e-001
      vertex   -3.810000e-001 7.730969e-001 1.000000e-001
      vertex   -4.410000e-001 8.330969e-001 0.000000e+000
    endloop
  endfacet
  facet normal 7.071068e-001 7.071068e-001 0.000000e+000
    outer loop
      vertex   -4.410000e-001 8.330969e-001 0.000000e+000
      vertex   -3.810000e-001 7.730969e-001 1.000000e-001
      vertex   -3.810000e-001 7.730969e-001 0.000000e+000
    endloop
  endfacet
  facet normal 1.000000e+000 1.927981e-016 0.000000e+000
    outer loop
      vertex   -3.810000e-001 7.730969e-001 1.000000e-001
      vertex   -3.810000e-001 -3.081000e+000 1.000000e-001
      vertex   -3.810000e-001 7.730969e-001 0.000000e+000
    endloop
  endfacet
  facet normal 1.000000e+000 1.927981e-016 0.000000e+000
    outer loop
      vertex   -3.810000e-001 7.730969e-001 0.000000e+000
      vertex   -3.810000e-001 -3.081000e+000 1.000000e-001
      vertex   -3.810000e-001 -3.081000e+000 0.000000e+000
    endloop
  endfacet
  facet normal 0.000000e+000 0.000000e+000 1.000000e+000
    outer loop
      vertex   -3.810000e-001 7.730969e-001 1.000000e-001
      vertex   -7.310000e-001 8.330969e-001 1.000000e-001
      vertex   -3.810000e-001 -3.081000e+000 1.000000e-001
    endloop
  endfacet
  facet normal 0.000000e+000 0.000000e+000 1.000000e+000
    outer loop
      vertex   -3.810000e-001 7.730969e-001 1.000000e-001
      vertex   -4.410000e-001 8.330969e-001 1.000000e-001
      vertex   -7.310000e-001 8.330969e-001 1.000000e-001
    endloop
  endfacet
  facet normal -0.000000e+000 0.000000e+000 1.000000e+000
    outer loop
      vertex   -7.310000e-001 8.330969e-001 1.000000e-001
      vertex   -7.310000e-001 -3.808744e+000 1.000000e-001
      vertex   -3.810000e-001 -3.081000e+000 1.000000e-001
    endloop
  endfacet
  facet normal -0.000000e+000 0.000000e+000 1.000000e+000
    outer loop
      vertex   -3.810000e-001 -3.081000e+000 1.000000e-001
      vertex   -7.310000e-001 -3.808744e+000 1.000000e-001
      vertex   3.810000e-001 -3.081000e+000 1.000000e-001
    endloop
  endfacet
  facet normal -0.000000e+000 0.000000e+000 1.000000e+000
    outer loop
      vertex   3.810000e-001 -3.081000e+000 1.000000e-001
      vertex   -7.310000e-001 -3.808744e+000 1.000000e-001
      vertex   5.190000e-001 -3.081000e+000 1.000000e-001
    endloop
  endfacet
  facet normal -0.000000e+000 0.000000e+000 1.000000e+000
    outer loop
      vertex   3.810000e-001 7.730969e-001 1.000000e-001
      vertex   5.190000e-001 -3.081000e+000 1.000000e-001
      vertex   5.190000e-001 7.730969e-001 1.000000e-001
    endloop
  endfacet
  facet normal -0.000000e+000 -0.000000e+000 1.000000e+000
    outer loop
      vertex   4.410000e-001 8.330969e-001 1.000000e-001
      vertex   5.190000e-001 7.730969e-001 1.000000e-001
      vertex   4.590000e-001 8.330969e-001 1.000000e-001
    endloop
  endfacet
  facet normal -0.000000e+000 0.000000e+000 1.000000e+000
    outer loop
      vertex   4.410000e-001 8.330969e-001 1.000000e-001
      vertex   3.810000e-001 7.730969e-001 1.000000e-001
      vertex   5.190000e-001 7.730969e-001 1.000000e-001
    endloop
  endfacet
  facet normal 0.000000e+000 0.000000e+000 1.000000e+000
    outer loop
      vertex   2.259000e+000 8.330969e-001 1.000000e-001
      vertex   2.241000e+000 8.330969e-001 1.000000e-001
      vertex   2.319000e+000 7.730969e-001 1.000000e-001
    endloop
  endfacet
  facet normal 0.000000e+000 0.000000e+000 1.000000e+000
    outer loop
      vertex   2.319000e+000 7.730969e-001 1.000000e-001
      vertex   2.241000e+000 8.330969e-001 1.000000e-001
      vertex   2.181000e+000 7.730969e-001 1.000000e-001
    endloop
  endfacet
  facet normal 0.000000e+000 0.000000e+000 1.000000e+000
    outer loop
      vertex   2.319000e+000 -3.081000e+000 1.000000e-001
      vertex   2.181000e+000 7.730969e-001 1.000000e-001
      vertex   2.181000e+000 -3.081000e+000 1.000000e-001
    endloop
  endfacet
  facet normal 0.000000e+000 0.000000e+000 1.000000e+000
    outer loop
      vertex   4.331000e+000 -3.808744e+000 1.000000e-001
      vertex   2.181000e+000 -3.081000e+000 1.000000e-001
      vertex   1.419000e+000 -3.081000e+000 1.000000e-001
    endloop
  endfacet
  facet normal 0.000000e+000 -0.000000e+000 1.000000e+000
    outer loop
      vertex   -7.310000e-001 -3.808744e+000 1.000000e-001
      vertex   1.419000e+000 -3.081000e+000 1.000000e-001
      vertex   1.281000e+000 -3.081000e+000 1.000000e-001
    endloop
  endfacet
  facet normal -0.000000e+000 0.000000e+000 1.000000e+000
    outer loop
      vertex   5.190000e-001 -3.081000e+000 1.000000e-001
      vertex   -7.310000e-001 -3.808744e+000 1.000000e-001
      vertex   1.281000e+000 -3.081000e+000 1.000000e-001
    endloop
  endfacet
  facet normal -0.000000e+000 0.000000e+000 1.000000e+000
    outer loop
      vertex   4.041000e+000 8.330969e-001 1.000000e-001
      vertex   3.981000e+000 7.730969e-001 1.000000e-001
      vertex   4.331000e+000 8.330969e-001 1.000000e-001
    endloop
  endfacet
  facet normal 0.000000e+000 0.000000e+000 1.000000e+000
    outer loop
      vertex   4.331000e+000 8.330969e-001 1.000000e-001
      vertex   3.981000e+000 7.730969e-001 1.000000e-001
      vertex   3.981000e+000 -3.081000e+000 1.000000e-001
    endloop
  endfacet
  facet normal 0.000000e+000 0.000000e+000 1.000000e+000
    outer loop
      vertex   4.331000e+000 -3.808744e+000 1.000000e-001
      vertex   3.981000e+000 -3.081000e+000 1.000000e-001
      vertex   3.219000e+000 -3.081000e+000 1.000000e-001
    endloop
  endfacet
  facet normal -0.000000e+000 -0.000000e+000 1.000000e+000
    outer loop
      vertex   3.081000e+000 -3.081000e+000 1.000000e-001
      vertex   3.219000e+000 -3.081000e+000 1.000000e-001
      vertex   3.081000e+000 7.730969e-001 1.000000e-001
    endloop
  endfacet
  facet normal -0.000000e+000 -0.000000e+000 1.000000e+000
    outer loop
      vertex   3.081000e+000 -3.081000e+000 1.000000e-001
      vertex   4.331000e+000 -3.808744e+000 1.000000e-001
      vertex   3.219000e+000 -3.081000e+000 1.000000e-001
    endloop
  endfacet
  facet normal 0.000000e+000 0.000000e+000 1.000000e+000
    outer loop
      vertex   3.081000e+000 -3.081000e+000 1.000000e-001
      vertex   2.319000e+000 -3.081000e+000 1.000000e-001
      vertex   4.331000e+000 -3.808744e+000 1.000000e-001
    endloop
  endfacet
  facet normal 0.000000e+000 0.000000e+000 1.000000e+000
    outer loop
      vertex   4.331000e+000 -3.808744e+000 1.000000e-001
      vertex   2.319000e+000 -3.081000e+000 1.000000e-001
      vertex   2.181000e+000 -3.081000e+000 1.000000e-001
    endloop
  endfacet
  facet normal 0.000000e+000 -0.000000e+000 1.000000e+000
    outer loop
      vertex   3.219000e+000 -3.081000e+000 1.000000e-001
      vertex   3.219000e+000 7.730969e-001 1.000000e-001
      vertex   3.081000e+000 7.730969e-001 1.000000e-001
    endloop
  endfacet
  facet normal -0.000000e+000 -0.000000e+000 1.000000e+000
    outer loop
      vertex   3.081000e+000 7.730969e-001 1.000000e-001
      vertex   3.219000e+000 7.730969e-001 1.000000e-001
      vertex   3.141000e+000 8.330969e-001 1.000000e-001
    endloop
  endfacet
  facet normal -0.000000e+000 -0.000000e+000 1.000000e+000
    outer loop
      vertex   3.141000e+000 8.330969e-001 1.000000e-001
      vertex   3.219000e+000 7.730969e-001 1.000000e-001
      vertex   3.159000e+000 8.330969e-001 1.000000e-001
    endloop
  endfacet
  facet normal 0.000000e+000 -0.000000e+000 1.000000e+000
    outer loop
      vertex   2.319000e+000 -3.081000e+000 1.000000e-001
      vertex   2.319000e+000 7.730969e-001 1.000000e-001
      vertex   2.181000e+000 7.730969e-001 1.000000e-001
    endloop
  endfacet
  facet normal -0.000000e+000 -0.000000e+000 1.000000e+000
    outer loop
      vertex   1.281000e+000 -3.081000e+000 1.000000e-001
      vertex   1.419000e+000 -3.081000e+000 1.000000e-001
      vertex   1.281000e+000 7.730969e-001 1.000000e-001
    endloop
  endfacet
  facet normal -0.000000e+000 0.000000e+000 1.000000e+000
    outer loop
      vertex   1.281000e+000 7.730969e-001 1.000000e-001
      vertex   1.419000e+000 -3.081000e+000 1.000000e-001
      vertex   1.419000e+000 7.730969e-001 1.000000e-001
    endloop
  endfacet
  facet normal -0.000000e+000 -0.000000e+000 1.000000e+000
    outer loop
      vertex   1.341000e+000 8.330969e-001 1.000000e-001
      vertex   1.419000e+000 7.730969e-001 1.000000e-001
      vertex   1.359000e+000 8.330969e-001 1.000000e-001
    endloop
  endfacet
  facet normal 0.000000e+000 0.000000e+000 1.000000e+000
    outer loop
      vertex   1.341000e+000 8.330969e-001 1.000000e-001
      vertex   1.281000e+000 7.730969e-001 1.000000e-001
      vertex   1.419000e+000 7.730969e-001 1.000000e-001
    endloop
  endfacet
  facet normal -0.000000e+000 0.000000e+000 1.000000e+000
    outer loop
      vertex   3.810000e-001 7.730969e-001 1.000000e-001
      vertex   3.810000e-001 -3.081000e+000 1.000000e-001
      vertex   5.190000e-001 -3.081000e+000 1.000000e-001
    endloop
  endfacet
  facet normal -0.000000e+000 0.000000e+000 1.000000e+000
    outer loop
      vertex   1.419000e+000 -3.081000e+000 1.000000e-001
      vertex   -7.310000e-001 -3.808744e+000 1.000000e-001
      vertex   4.331000e+000 -3.808744e+000 1.000000e-001
    endloop
  endfacet
  facet normal -0.000000e+000 0.000000e+000 1.000000e+000
    outer loop
      vertex   3.981000e+000 -3.081000e+000 1.000000e-001
      vertex   4.331000e+000 -3.808744e+000 1.000000e-001
      vertex   4.331000e+000 8.330969e-001 1.000000e-001
    endloop
  endfacet
  facet normal -0.000000e+000 -0.000000e+000 -1.000000e+000
    outer loop
      vertex   -4.410000e-001 8.330969e-001 0.000000e+000
      vertex   -3.810000e-001 7.730969e-001 0.000000e+000
      vertex   -7.310000e-001 8.330969e-001 0.000000e+000
    endloop
  endfacet
  facet normal 0.000000e+000 0.000000e+000 -1.000000e+000
    outer loop
      vertex   -7.310000e-001 8.330969e-001 0.000000e+000
      vertex   -3.810000e-001 7.730969e-001 0.000000e+000
      vertex   -3.810000e-001 -3.081000e+000 0.000000e+000
    endloop
  endfacet
  facet normal 0.000000e+000 0.000000e+000 -1.000000e+000
    outer loop
      vertex   -7.310000e-001 -3.808744e+000 0.000000e+000
      vertex   -3.810000e-001 -3.081000e+000 0.000000e+000
      vertex   3.810000e-001 -3.081000e+000 0.000000e+000
    endloop
  endfacet
  facet normal 0.000000e+000 0.000000e+000 -1.000000e+000
    outer loop
      vertex   5.190000e-001 -3.081000e+000 0.000000e+000
      vertex   3.810000e-001 -3.081000e+000 0.000000e+000
      vertex   5.190000e-001 7.730969e-001 0.000000e+000
    endloop
  endfacet
  facet normal -0.000000e+000 0.000000e+000 -1.000000e+000
    outer loop
      vertex   5.190000e-001 -3.081000e+000 0.000000e+000
      vertex   -7.310000e-001 -3.808744e+000 0.000000e+000
      vertex   3.810000e-001 -3.081000e+000 0.000000e+000
    endloop
  endfacet
  facet normal 0.000000e+000 -0.000000e+000 -1.000000e+000
    outer loop
      vertex   5.190000e-001 -3.081000e+000 0.000000e+000
      vertex   1.281000e+000 -3.081000e+000 0.000000e+000
      vertex   -7.310000e-001 -3.808744e+000 0.000000e+000
    endloop
  endfacet
  facet normal 0.000000e+000 0.000000e+000 -1.000000e+000
    outer loop
      vertex   -7.310000e-001 -3.808744e+000 0.000000e+000
      vertex   1.281000e+000 -3.081000e+000 0.000000e+000
      vertex   1.419000e+000 -3.081000e+000 0.000000e+000
    endloop
  endfacet
  facet normal -0.000000e+000 0.000000e+000 -1.000000e+000
    outer loop
      vertex   2.181000e+000 -3.081000e+000 0.000000e+000
      vertex   -7.310000e-001 -3.808744e+000 0.000000e+000
      vertex   1.419000e+000 -3.081000e+000 0.000000e+000
    endloop
  endfacet
  facet normal 0.000000e+000 -0.000000e+000 -1.000000e+000
    outer loop
      vertex   2.181000e+000 -3.081000e+000 0.000000e+000
      vertex   4.331000e+000 -3.808744e+000 0.000000e+000
      vertex   -7.310000e-001 -3.808744e+000 0.000000e+000
    endloop
  endfacet
  facet normal 0.000000e+000 0.000000e+000 -1.000000e+000
    outer loop
      vertex   2.181000e+000 -3.081000e+000 0.000000e+000
      vertex   2.319000e+000 -3.081000e+000 0.000000e+000
      vertex   4.331000e+000 -3.808744e+000 0.000000e+000
    endloop
  endfacet
  facet normal 0.000000e+000 0.000000e+000 -1.000000e+000
    outer loop
      vertex   2.181000e+000 -3.081000e+000 0.000000e+000
      vertex   2.319000e+000 7.730969e-001 0.000000e+000
      vertex   2.319000e+000 -3.081000e+000 0.000000e+000
    endloop
  endfacet
  facet normal 0.000000e+000 0.000000e+000 -1.000000e+000
    outer loop
      vertex   2.181000e+000 -3.081000e+000 0.000000e+000
      vertex   2.181000e+000 7.730969e-001 0.000000e+000
      vertex   2.319000e+000 7.730969e-001 0.000000e+000
    endloop
  endfacet
  facet normal 0.000000e+000 0.000000e+000 -1.000000e+000
    outer loop
      vertex   2.319000e+000 7.730969e-001 0.000000e+000
      vertex   2.181000e+000 7.730969e-001 0.000000e+000
      vertex   2.259000e+000 8.330969e-001 0.000000e+000
    endloop
  endfacet
  facet normal -0.000000e+000 0.000000e+000 -1.000000e+000
    outer loop
      vertex   2.259000e+000 8.330969e-001 0.000000e+000
      vertex   2.181000e+000 7.730969e-001 0.000000e+000
      vertex   2.241000e+000 8.330969e-001 0.000000e+000
    endloop
  endfacet
  facet normal 0.000000e+000 0.000000e+000 -1.000000e+000
    outer loop
      vertex   3.810000e-001 -3.081000e+000 0.000000e+000
      vertex   3.810000e-001 7.730969e-001 0.000000e+000
      vertex   5.190000e-001 7.730969e-001 0.000000e+000
    endloop
  endfacet
  facet normal -0.000000e+000 0.000000e+000 -1.000000e+000
    outer loop
      vertex   5.190000e-001 7.730969e-001 0.000000e+000
      vertex   3.810000e-001 7.730969e-001 0.000000e+000
      vertex   4.590000e-001 8.330969e-001 0.000000e+000
    endloop
  endfacet
  facet normal -0.000000e+000 0.000000e+000 -1.000000e+000
    outer loop
      vertex   4.590000e-001 8.330969e-001 0.000000e+000
      vertex   3.810000e-001 7.730969e-001 0.000000e+000
      vertex   4.410000e-001 8.330969e-001 0.000000e+000
    endloop
  endfacet
  facet normal 0.000000e+000 0.000000e+000 -1.000000e+000
    outer loop
      vertex   1.419000e+000 -3.081000e+000 0.000000e+000
      vertex   1.281000e+000 -3.081000e+000 0.000000e+000
      vertex   1.419000e+000 7.730969e-001 0.000000e+000
    endloop
  endfacet
  facet normal -0.000000e+000 0.000000e+000 -1.000000e+000
    outer loop
      vertex   1.419000e+000 7.730969e-001 0.000000e+000
      vertex   1.281000e+000 -3.081000e+000 0.000000e+000
      vertex   1.281000e+000 7.730969e-001 0.000000e+000
    endloop
  endfacet
  facet normal -0.000000e+000 0.000000e+000 -1.000000e+000
    outer loop
      vertex   1.359000e+000 8.330969e-001 0.000000e+000
      vertex   1.281000e+000 7.730969e-001 0.000000e+000
      vertex   1.341000e+000 8.330969e-001 0.000000e+000
    endloop
  endfacet
  facet normal -0.000000e+000 -0.000000e+000 -1.000000e+000
    outer loop
      vertex   1.359000e+000 8.330969e-001 0.000000e+000
      vertex   1.419000e+000 7.730969e-001 0.000000e+000
      vertex   1.281000e+000 7.730969e-001 0.000000e+000
    endloop
  endfacet
  facet normal 0.000000e+000 0.000000e+000 -1.000000e+000
    outer loop
      vertex   2.319000e+000 -3.081000e+000 0.000000e+000
      vertex   3.081000e+000 -3.081000e+000 0.000000e+000
      vertex   4.331000e+000 -3.808744e+000 0.000000e+000
    endloop
  endfacet
  facet normal 0.000000e+000 0.000000e+000 -1.000000e+000
    outer loop
      vertex   4.331000e+000 -3.808744e+000 0.000000e+000
      vertex   3.081000e+000 -3.081000e+000 0.000000e+000
      vertex   3.219000e+000 -3.081000e+000 0.000000e+000
    endloop
  endfacet
  facet normal -0.000000e+000 -0.000000e+000 -1.000000e+000
    outer loop
      vertex   3.981000e+000 -3.081000e+000 0.000000e+000
      vertex   4.331000e+000 -3.808744e+000 0.000000e+000
      vertex   3.219000e+000 -3.081000e+000 0.000000e+000
    endloop
  endfacet
  facet normal 0.000000e+000 0.000000e+000 -1.000000e+000
    outer loop
      vertex   3.981000e+000 -3.081000e+000 0.000000e+000
      vertex   4.331000e+000 8.330969e-001 0.000000e+000
      vertex   4.331000e+000 -3.808744e+000 0.000000e+000
    endloop
  endfacet
  facet normal 0.000000e+000 0.000000e+000 -1.000000e+000
    outer loop
      vertex   3.981000e+000 -3.081000e+000 0.000000e+000
      vertex   3.981000e+000 7.730969e-001 0.000000e+000
      vertex   4.331000e+000 8.330969e-001 0.000000e+000
    endloop
  endfacet
  facet normal -0.000000e+000 0.000000e+000 -1.000000e+000
    outer loop
      vertex   4.331000e+000 8.330969e-001 0.000000e+000
      vertex   3.981000e+000 7.730969e-001 0.000000e+000
      vertex   4.041000e+000 8.330969e-001 0.000000e+000
    endloop
  endfacet
  facet normal 0.000000e+000 0.000000e+000 -1.000000e+000
    outer loop
      vertex   3.219000e+000 -3.081000e+000 0.000000e+000
      vertex   3.081000e+000 -3.081000e+000 0.000000e+000
      vertex   3.219000e+000 7.730969e-001 0.000000e+000
    endloop
  endfacet
  facet normal -0.000000e+000 0.000000e+000 -1.000000e+000
    outer loop
      vertex   3.219000e+000 7.730969e-001 0.000000e+000
      vertex   3.081000e+000 -3.081000e+000 0.000000e+000
      vertex   3.081000e+000 7.730969e-001 0.000000e+000
    endloop
  endfacet
  facet normal -0.000000e+000 0.000000e+000 -1.000000e+000
    outer loop
      vertex   3.159000e+000 8.330969e-001 0.000000e+000
      vertex   3.081000e+000 7.730969e-001 0.000000e+000
      vertex   3.141000e+000 8.330969e-001 0.000000e+000
    endloop
  endfacet
  facet normal -0.000000e+000 -0.000000e+000 -1.000000e+000
    outer loop
      vertex   3.159000e+000 8.330969e-001 0.000000e+000
      vertex   3.219000e+000 7.730969e-001 0.000000e+000
      vertex   3.081000e+000 7.730969e-001 0.000000e+000
    endloop
  endfacet
  facet normal 0.000000e+000 0.000000e+000 -1.000000e+000
    outer loop
      vertex   -7.310000e-001 -3.808744e+000 0.000000e+000
      vertex   -7.310000e-001 8.330969e-001 0.000000e+000
      vertex   -3.810000e-001 -3.081000e+000 0.000000e+000
    endloop
  endfacet
endsolid
